<svg width="473" height="151" viewBox="0 0 473 151" fill="none" xmlns="http://www.w3.org/2000/svg">
<path d="M182.166 111.74H187.028C189.834 111.74 191.33 113.628 191.33 116.837C191.33 119.668 189.834 121.933 187.028 121.933H181.979L182.166 111.74ZM183.101 120.8H186.841C188.712 120.8 190.208 119.857 190.208 116.837C190.208 114.194 189.273 112.873 186.841 112.873H183.101V120.8Z" fill="black"/>
<path d="M194.512 111.74H195.447V121.744H194.512V111.74Z" fill="black"/>
<path d="M207.787 119.857C206.665 121.367 205.543 121.933 203.672 121.933C200.306 121.933 198.436 119.857 198.436 116.648C198.436 113.628 200.493 111.363 203.672 111.363C206.478 111.363 208.161 112.873 208.535 114.76H207.6C207.226 113.062 205.73 112.307 203.859 112.307C201.054 112.307 199.745 114.005 199.745 116.648C199.745 119.29 201.054 120.989 203.672 120.989C206.665 120.989 207.6 119.29 207.974 117.403H204.421V116.459H209.096V121.555H208.348L207.787 119.857Z" fill="black"/>
<path d="M212.09 111.74H213.025V121.744H212.09V111.74Z" fill="black"/>
<path d="M219.572 112.684H215.645V111.74H224.435V112.684H220.507V121.744H219.385L219.572 112.684Z" fill="black"/>
<path d="M232.104 118.724H226.867L225.558 121.744H224.436L228.924 111.74H230.046L234.535 121.744H233.413L232.104 118.724ZM229.485 112.684L227.241 117.591H231.73L229.485 112.684Z" fill="black"/>
<path d="M236.965 111.74H237.9V120.8H244.259V121.744H236.965V111.74Z" fill="black"/>
<path d="M261.653 111.74H263.149V121.744H262.214V113.061L257.912 121.744H256.977L252.675 113.061V121.744H251.74V111.74H253.236L257.725 120.423L261.653 111.74Z" fill="black"/>
<path d="M273.061 118.724H267.824L266.515 121.744H265.393L269.881 111.74H271.003L275.492 121.744H274.37L273.061 118.724ZM270.442 112.684L268.198 117.591H272.687L270.442 112.684Z" fill="black"/>
<path d="M278.113 111.74H283.537C285.22 111.74 286.717 112.306 286.717 114.383C286.717 115.515 285.969 116.459 284.846 116.836C286.343 117.025 286.53 117.969 286.53 119.668C286.53 120.234 286.53 121.555 286.904 121.744H285.782C285.595 121.555 285.595 120.8 285.595 119.668C285.595 117.969 284.846 117.403 283.163 117.403H279.235V121.744H278.113V111.74ZM279.048 116.27H283.35C284.472 116.27 285.408 115.893 285.408 114.383C285.408 112.873 284.285 112.684 283.35 112.684H278.861V116.27H279.048Z" fill="black"/>
<path d="M289.895 111.741H290.83V117.026L297.189 111.552H298.685L293.822 115.704L299.059 121.556H297.563L292.887 116.459L290.643 118.347V121.744H289.895V111.741Z" fill="black"/>
<path d="M301.49 111.74H309.345V112.684H302.425V116.081H308.971V117.025H302.425V120.8H309.345V121.744H301.303L301.49 111.74Z" fill="black"/>
<path d="M315.519 112.684H311.592V111.74H320.382V112.684H316.455V121.744H315.519V112.684Z" fill="black"/>
<path d="M322.812 111.74H323.935V121.744H322.812V111.74Z" fill="black"/>
<path d="M327.301 111.74H328.61L335.53 120.234V111.74H336.465V121.744H335.343L328.423 113.25V121.744H327.301V111.74Z" fill="black"/>
<path d="M348.81 119.857C347.688 121.367 346.566 121.933 344.696 121.933C341.329 121.933 339.459 119.857 339.459 116.648C339.459 113.628 341.516 111.363 344.696 111.363C347.501 111.363 349.185 112.873 349.559 114.76H348.436C348.062 113.062 346.566 112.307 344.696 112.307C341.89 112.307 340.581 114.005 340.581 116.648C340.581 119.29 341.89 120.989 344.509 120.989C347.501 120.989 348.436 119.29 348.81 117.403H345.07V116.459H349.746V121.555H348.997L348.81 119.857Z" fill="black"/>
<path d="M367.887 111.74H369.383V121.744H368.448V113.061L364.146 121.744H363.211L358.909 113.061V121.744H357.787V111.74H359.283L363.772 120.423L367.887 111.74Z" fill="black"/>
<path d="M379.485 118.724H374.248L372.939 121.744H371.816L376.305 111.74H377.427L381.916 121.744H380.794L379.485 118.724ZM376.866 112.684L374.622 117.591H379.111L376.866 112.684Z" fill="black"/>
<path d="M384.343 111.74H389.206C392.011 111.74 393.508 113.628 393.508 116.837C393.508 119.668 392.011 121.933 389.206 121.933H384.156L384.343 111.74ZM385.278 120.8H389.019C390.702 120.8 392.386 119.857 392.386 116.837C392.386 114.194 391.45 112.873 389.019 112.873H385.278V120.8Z" fill="black"/>
<path d="M396.691 111.74H404.546V112.684H397.626V116.081H404.172V117.025H397.626V120.8H404.546V121.744H396.504L396.691 111.74Z" fill="black"/>
<path d="M418.759 114.572C418.572 112.873 417.262 112.496 415.579 112.496C413.896 112.496 412.774 113.062 412.774 114.194C412.774 115.516 414.083 115.893 416.327 116.271C418.198 116.648 419.881 117.026 419.881 118.913C419.881 121.367 417.636 122.122 415.766 122.122C413.335 122.122 411.464 121.178 411.277 118.536H412.4C412.587 120.612 413.896 121.178 415.953 121.178C417.449 121.178 418.946 120.801 418.946 119.102C418.946 117.592 417.075 117.403 415.392 117.026C412.961 116.648 411.838 115.893 411.838 114.383C411.838 112.118 413.896 111.552 415.766 111.552C417.824 111.552 419.881 112.307 419.881 114.761H418.759V114.572Z" fill="black"/>
<path d="M422.873 111.74H423.995V121.744H422.873V111.74Z" fill="black"/>
<path d="M437.651 111.74H439.147V121.744H438.212V113.061L433.91 121.744H432.975L428.673 113.061V121.744H427.738V111.74H429.235L433.723 120.423L437.651 111.74Z" fill="black"/>
<path d="M442.512 111.74H447.936C449.432 111.74 450.928 112.495 450.928 114.571C450.928 116.459 449.619 117.403 447.562 117.403H443.634V121.555H442.699L442.512 111.74ZM443.634 116.459H447.562C449.245 116.459 449.806 115.704 449.806 114.571C449.806 113.061 449.058 112.684 447.749 112.684H443.634V116.459Z" fill="black"/>
<path d="M453.549 111.74H454.671V120.8H461.03V121.744H453.736L453.549 111.74Z" fill="black"/>
<path d="M463.273 111.74H471.128V112.684H464.208V116.081H470.754V117.025H464.208V120.8H471.128V121.744H463.086L463.273 111.74Z" fill="black"/>
<path d="M210.408 64.7414C215.27 57.7576 219.759 51.3401 222.565 46.4326H237.153C231.542 55.1151 223.687 66.6289 216.019 77.0101V97.9614H204.236V77.0101C196.193 65.6851 187.029 53.0389 181.418 46.4326H197.129C200.682 51.1514 205.545 57.5689 210.408 64.7414Z" fill="black"/>
<path d="M311.59 71.7254C311.59 93.0542 303.174 99.0942 286.715 99.0942C270.256 99.0942 261.84 92.8654 261.84 71.7254C261.84 50.7742 270.256 45.3004 286.715 45.3004C303.174 45.1117 311.59 50.7742 311.59 71.7254ZM299.059 71.7254C299.059 57.5692 297.189 56.0592 286.715 56.0592C276.428 56.0592 274.371 57.7579 274.371 71.7254C274.371 86.0704 276.241 88.1467 286.715 88.1467C297.189 88.1467 299.059 86.0704 299.059 71.7254Z" fill="black"/>
<path d="M367.325 46.4326C383.597 46.4326 391.639 51.9064 391.639 71.9139C391.639 91.9214 383.784 97.9614 367.325 97.9614H346.004V46.4326H367.325ZM365.829 56.8139H357.6V87.3914H365.829C376.116 87.3914 378.921 85.3151 378.921 71.9139C378.921 58.3239 376.303 56.8139 365.829 56.8139Z" fill="black"/>
<path d="M455.604 86.6364H434.47C433.161 90.9776 432.038 94.9414 431.103 97.9614H418.572C422.874 83.4276 430.916 60.7776 436.714 46.4326H455.043C459.906 62.6651 467.574 84.5601 472.998 97.9614H459.906C458.784 94.9414 457.101 90.9776 455.604 86.6364ZM444.195 56.8139C442.138 62.2876 439.894 69.2714 437.462 76.4439H452.051C449.619 69.4601 447.562 62.2876 445.879 56.8139H444.195Z" fill="black"/>
<path d="M58.3535 87.7687C60.2238 84.9375 60.2238 81.3512 58.3535 78.5199L28.2416 33.4087C27.1194 36.6174 24.1269 38.8824 20.5734 38.8824H11.9699L41.7078 83.05L13.2792 124.386C13.2792 124.386 13.2792 124.386 13.0921 124.386C5.79794 124.386 0 130.237 0 137.599C0 144.96 5.79794 150.811 13.0921 150.811C20.3863 150.811 26.1843 144.96 26.1843 137.599C26.1843 136.655 25.9972 135.711 25.8102 134.767L58.3535 87.7687Z" fill="black"/>
<path d="M87.3438 16.0435H32.9179C28.9903 16.0435 28.6162 19.0635 28.6162 20.3847V30.3885C28.6162 31.1435 28.4292 31.8985 28.2422 32.4647H87.1568C118.578 32.6535 144.014 55.3035 144.014 83.0497C144.014 110.796 118.578 133.446 87.5308 133.446H65.0872L88.653 96.2622C95.1991 95.5072 100.436 89.8447 100.436 83.0497C100.436 75.6885 94.638 69.8372 87.3438 69.8372C80.0496 69.8372 74.2517 75.6885 74.2517 83.0497C74.2517 84.5597 74.4387 85.881 74.9998 87.391L43.0176 137.41C41.3343 139.863 41.3343 143.261 42.6435 145.903C44.1398 148.546 46.7582 150.245 49.7507 150.245H87.1568C127.368 150.245 160.099 120.233 160.099 83.2385C160.286 46.2435 127.555 16.0435 87.3438 16.0435Z" fill="black"/>
<path d="M23.0057 29.8225C23.0057 29.8225 23.0057 23.2162 23.0057 20.1962C23.0057 17.5537 24.5019 10.7587 32.3572 10.7587C34.2275 10.7587 35.5367 10.7587 35.5367 10.7587C36.2849 10.7587 37.033 10.1925 37.033 9.24875V1.51C37.033 0.56625 36.2849 0 35.5367 0H27.6815C26.9333 0 26.1852 0.56625 26.1852 1.51C26.1852 1.51 26.1852 5.47375 26.1852 6.60625C26.1852 9.24875 19.4521 14.1562 16.8337 14.1562C12.532 14.1562 7.29515 14.1562 7.29515 14.1562C5.98593 14.1562 5.05078 15.1 5.05078 16.61V29.8225C5.05078 31.1437 6.17296 32.2762 7.48218 32.2762H20.5743C21.8835 32.2762 23.0057 31.1437 23.0057 29.8225Z" fill="black"/>
</svg>
